<?xml version="1.0" encoding="UTF-8" standalone="no"?>
<!-- Created with Inkscape (http://www.inkscape.org/) -->

<svg
   width="80.196999mm"
   height="80.196999mm"
   viewBox="0 0 80.196999 80.196998"
   version="1.1"
   id="svg1"
   xml:space="preserve"
   inkscape:version="1.4 (e7c3feb100, 2024-10-09)"
   sodipodi:docname="icon.svg"
   inkscape:export-filename="32x32.png"
   inkscape:export-xdpi="10.135042"
   inkscape:export-ydpi="10.135042"
   xmlns:inkscape="http://www.inkscape.org/namespaces/inkscape"
   xmlns:sodipodi="http://sodipodi.sourceforge.net/DTD/sodipodi-0.dtd"
   xmlns="http://www.w3.org/2000/svg"
   xmlns:svg="http://www.w3.org/2000/svg"><sodipodi:namedview
     id="namedview1"
     pagecolor="#ffffff"
     bordercolor="#000000"
     borderopacity="0.25"
     inkscape:showpageshadow="2"
     inkscape:pageopacity="0.0"
     inkscape:pagecheckerboard="0"
     inkscape:deskcolor="#d1d1d1"
     inkscape:document-units="mm"
     inkscape:zoom="2.0537318"
     inkscape:cx="186.00287"
     inkscape:cy="172.36915"
     inkscape:window-width="1920"
     inkscape:window-height="1043"
     inkscape:window-x="0"
     inkscape:window-y="0"
     inkscape:window-maximized="1"
     inkscape:current-layer="layer1"
     inkscape:export-bgcolor="#ffffffff" /><defs
     id="defs1" /><g
     inkscape:label="Layer 1"
     inkscape:groupmode="layer"
     id="layer1"
     transform="translate(-9.296347,-6.37388)"><g
       id="g12"
       transform="translate(-48.121519,-133.46202)"><path
         style="fill:#e1e1dd"
         d="m 57.417946,212.88156 c -0.0011,-45.48218 0.03059,-56.91976 0.157685,-56.97102 0.127017,-0.0512 0.126895,-0.0662 -6.03e-4,-0.0742 -0.126521,-0.008 -0.158062,-1.66802 -0.152081,-8.00432 l 0.0075,-7.99431 29.013567,0.002 c 22.751696,0.001 29.055166,0.0356 29.206316,0.15783 0.15308,0.12384 0.17313,0.12329 0.0974,-0.003 -0.0752,-0.12519 0.56055,-0.15864 3.01509,-0.15864 2.82328,0 3.12357,0.0205 3.25319,0.22209 0.1325,0.20608 0.13789,0.20629 0.0748,0.003 -0.0641,-0.20689 -64.672108,108.3728 -64.672944,72.82048 z m 43.206104,-1.6617 c 3.5559,-0.46791 6.36455,-1.31481 9.45955,-2.85234 2.59079,-1.28704 4.09343,-2.30618 6.47199,-4.38952 4.93762,-4.32476 8.22258,-10.38389 9.35205,-17.24986 0.39916,-2.42648 0.28014,-7.78505 -0.21564,-9.70835 -0.063,-0.24429 -0.21073,-0.87248 -0.32835,-1.39597 -0.42923,-1.91029 -1.60217,-4.97285 -2.62466,-6.85295 -0.70705,-1.30011 -2.07857,-3.33477 -3.09977,-4.59856 -3.84624,-4.75991 -9.29411,-8.23411 -15.28262,-9.74598 -2.94527,-0.74356 -4.28453,-0.90784 -7.321646,-0.89811 -2.658538,0.008 -4.540403,0.25287 -7.087797,0.92028 -8.905118,2.33314 -15.926673,8.44154 -19.504782,16.96821 -3.245804,7.73477 -2.951999,16.42821 0.807669,23.89822 1.583888,3.14699 3.108258,5.26689 5.462023,7.5959 4.394904,4.34867 10.164065,7.27012 16.140457,8.17338 2.402445,0.3631 5.616708,0.41921 7.771526,0.13565 z m 26.33812,-54.81495 c 0,-0.0308 -0.0571,-0.0913 -0.1269,-0.1344 -0.0698,-0.0431 -0.12691,-0.018 -0.12691,0.056 0,0.0739 0.0571,0.1344 0.12691,0.1344 0.0698,0 0.1269,-0.0252 0.1269,-0.056 z m -39.121583,-7.1275 c -0.04217,-0.0422 -0.151626,-0.0467 -0.243237,-0.01 -0.101238,0.0405 -0.07117,0.0706 0.07667,0.0767 0.13378,0.006 0.208734,-0.0245 0.166564,-0.0666 z m 24.366053,-2.79192 c -0.0422,-0.0422 -0.15162,-0.0467 -0.24323,-0.01 -0.10124,0.0405 -0.0712,0.0706 0.0767,0.0767 0.13378,0.006 0.20873,-0.0245 0.16656,-0.0666 z m -53.12328,-2.30282 c 0.157855,-0.20128 0.153367,-0.20577 -0.04791,-0.0479 -0.122148,0.0958 -0.222087,0.19573 -0.222087,0.22208 0,0.10445 0.104214,0.0372 0.270001,-0.17417 z m 66.35594,0.0952 c 0,-0.0698 -0.0605,-0.12691 -0.1344,-0.12691 -0.0739,0 -0.0991,0.0571 -0.056,0.12691 0.0431,0.0698 0.10362,0.1269 0.1344,0.1269 0.0308,0 0.056,-0.0571 0.056,-0.1269 z m -13.05563,-0.28766 c -0.12534,-0.1244 -0.13991,-0.10982 -0.071,0.071 0.0477,0.12516 0.11862,0.19559 0.15769,0.15652 0.0391,-0.0391 8e-5,-0.14148 -0.0867,-0.22756 z m -10.45646,-0.80427 c -0.0422,-0.0422 -0.15162,-0.0467 -0.24323,-0.01 -0.10124,0.0405 -0.0712,0.0706 0.0767,0.0767 0.13378,0.006 0.20873,-0.0245 0.16656,-0.0667 z m -8.849084,-0.35393 c 0,-0.0274 -0.08566,-0.0828 -0.19036,-0.12292 -0.104697,-0.0402 -0.190359,-0.0177 -0.190359,0.0499 0,0.0676 0.08566,0.12293 0.190359,0.12293 0.104698,0 0.19036,-0.0224 0.19036,-0.0499 z m 22.945574,-0.52455 c -0.0391,-0.0391 -0.11003,0.0314 -0.15769,0.15652 -0.0689,0.18086 -0.0543,0.19544 0.071,0.071 0.0867,-0.0861 0.12572,-0.18849 0.0867,-0.22756 z m -49.595948,-0.62369 c 0,-0.0308 -0.05711,-0.0913 -0.126907,-0.13439 -0.0698,-0.0431 -0.126906,-0.018 -0.126906,0.056 0,0.0739 0.05711,0.13439 0.126906,0.13439 0.0698,0 0.126907,-0.0252 0.126907,-0.056 z m 40.990818,-1.00916 c 0,-0.0274 -0.0886,-0.0839 -0.19696,-0.12545 -0.11293,-0.0433 -0.16387,-0.0221 -0.11941,0.0499 0.0745,0.12059 0.31637,0.17836 0.31637,0.0756 z m 11.92921,-0.0559 c 0,-0.0582 -0.0857,-0.10575 -0.19036,-0.10575 -0.1047,0 -0.19036,0.0476 -0.19036,0.10575 0,0.0582 0.0857,0.10576 0.19036,0.10576 0.1047,0 0.19036,-0.0476 0.19036,-0.10576 z m -22.208644,-0.0771 c 0,-0.0308 -0.05711,-0.0913 -0.126907,-0.13439 -0.0698,-0.0431 -0.126906,-0.0179 -0.126906,0.056 0,0.0739 0.05711,0.13439 0.126906,0.13439 0.0698,0 0.126907,-0.0252 0.126907,-0.056 z m 18.107424,-0.34855 c -0.0405,-0.10123 -0.0706,-0.0712 -0.0767,0.0767 -0.005,0.13378 0.0245,0.20874 0.0667,0.16657 0.0422,-0.0422 0.0467,-0.15163 0.01,-0.24324 z"
         id="path10"
         sodipodi:nodetypes="sscccsssssssssssssssssssssssssssssssssssssssssssssssssssssssssssssssssssssssssssssssssssssssssssssss" /><path
         style="fill:#e68c3d;stroke-width:1"
         d="m 110.42325,198.29133 c 0.31832,-0.0396 0.83919,-0.0396 1.1575,0 0.31832,0.0396 0.0578,0.0719 -0.57874,0.0719 -0.63663,0 -0.89708,-0.0323 -0.57876,-0.0719 z m -21.488739,-0.50929 c 0.0086,-0.20746 0.05074,-0.24965 0.107584,-0.10763 0.05144,0.12853 0.04511,0.28214 -0.01406,0.34132 -0.05917,0.0592 -0.101256,-0.046 -0.09352,-0.23374 z m 0,-1.95885 c 0.0086,-0.20745 0.05074,-0.24964 0.107584,-0.10763 0.05144,0.12854 0.04511,0.28215 -0.01406,0.34132 -0.05917,0.0592 -0.101256,-0.046 -0.09352,-0.23373 z m 5.918643,-12.17498 c -0.473415,-0.20254 -0.768469,-0.7172 -0.768469,-1.34044 0,-0.54193 3.656859,-18.9587 3.933267,-19.80883 0.296377,-0.91155 1.102749,-1.47496 2.110998,-1.47496 1.10556,0 1.71725,0.46038 1.87831,1.4137 l 0.1183,0.69998 0.83217,-0.639 c 1.53182,-1.17621 2.55772,-1.53131 4.47369,-1.54849 1.51881,-0.014 1.82041,0.04 2.81857,0.50095 2.33836,1.07984 3.38743,3.24837 3.20605,6.62728 -0.32349,6.02682 -5.10576,10.5925 -10.13899,9.67979 -1.31971,-0.2393 -1.99412,-0.55344 -2.77135,-1.29086 -0.680761,-0.6459 -0.5786,-0.85362 -1.275697,2.59381 -0.57904,2.86358 -0.920146,3.74357 -1.660883,4.28474 -0.540909,0.39519 -2.131142,0.56964 -2.755937,0.30233 z m 10.916426,-10.05239 c 1.03004,-0.47962 1.61824,-1.16224 2.32453,-2.69772 0.40613,-0.8829 0.48866,-1.31139 0.49556,-2.57297 0.014,-2.55657 -0.84556,-3.65838 -2.84095,-3.64158 -1.75971,0.0149 -3.00903,0.96472 -4.05012,3.07946 -0.49442,1.00433 -0.56908,1.34176 -0.5741,2.59455 -0.004,1.12226 0.0763,1.59727 0.36612,2.15239 0.75881,1.45337 2.52636,1.90193 4.27896,1.08587 z"
         id="path9"
         sodipodi:nodetypes="sssscsscccssccssssscscssssssssssscssss" /><path
         style="fill:#1fc0a6;stroke-width:1"
         d="m 112.29644,198.29675 c 0.17327,-0.0452 0.41367,-0.0422 0.53423,0.007 0.12054,0.0488 -0.0212,0.0857 -0.31502,0.0821 -0.29382,-0.004 -0.39246,-0.0435 -0.21921,-0.0887 z m -16.564543,-9.43744 c 0.1714,-0.0448 0.451871,-0.0448 0.623269,0 0.1714,0.0448 0.03117,0.0814 -0.311634,0.0814 -0.342798,0 -0.483034,-0.0366 -0.311635,-0.0814 z m -20.253903,-5.66607 c -0.888816,-0.31651 -1.159857,-0.68107 -1.159857,-1.56006 0,-0.89743 0.770433,-1.73304 1.597838,-1.73304 0.306226,0 0.791267,-0.12124 1.07787,-0.26947 0.64748,-0.33482 0.801759,-0.84468 1.777455,-5.87419 0.399007,-2.05679 0.922564,-4.7536 1.163461,-5.99292 0.240897,-1.23932 0.437995,-2.34118 0.437995,-2.44856 0,-0.11577 -0.365526,-0.19525 -0.898479,-0.19525 -0.716506,0 -0.987008,-0.0885 -1.335578,-0.4371 -0.490184,-0.49018 -0.511642,-0.62293 -0.251895,-1.55817 0.271528,-0.97766 0.898863,-1.3882 2.121253,-1.3882 h 1.011886 l 0.320803,-1.38009 c 0.616786,-2.65343 1.728127,-4.21177 3.630729,-5.09107 1.181201,-0.54589 4.571768,-0.56312 5.640708,-0.0286 0.651521,0.32575 0.717124,0.42364 0.768727,1.14697 0.111415,1.56171 -0.782641,2.25422 -2.639094,2.04419 -0.887569,-0.10047 -1.137962,-0.0606 -1.664642,0.26494 -0.652317,0.40316 -1.184031,1.54098 -1.184031,2.53371 0,0.49361 0.0039,0.49517 1.361649,0.54703 1.237645,0.0473 1.393789,0.0951 1.714552,0.52571 0.439176,0.58952 0.311297,1.52034 -0.30791,2.24127 -0.386326,0.44979 -0.55163,0.49779 -1.995429,0.57945 l -1.574209,0.0891 -1.337076,6.67788 c -0.735391,3.67284 -1.445404,7.03849 -1.577807,7.47923 -0.588888,1.96029 -2.082946,3.57895 -3.604677,3.9053 -1.188205,0.25482 -2.233663,0.22848 -3.094242,-0.078 z m 42.424496,-15.87643 c 0.12236,-0.0494 0.32275,-0.0494 0.44518,0 0.12236,0.0494 0.0223,0.0898 -0.22259,0.0898 -0.24486,0 -0.34502,-0.0404 -0.22259,-0.0898 z"
         id="path8"
         sodipodi:nodetypes="cccccssssssscssssssscssssssssssccsssssssss" /><path
         style="fill:#ffffff;fill-opacity:1;stroke-width:1"
         d="m 117.14565,171.81499 c -0.80714,-0.35628 -1.18961,-0.89358 -1.29375,-1.81751 -0.17129,-1.51968 0.77343,-2.56273 2.32116,-2.56273 0.53593,0 0.94819,0.12095 1.26714,0.37188 2.24074,1.76256 0.29964,5.15347 -2.29455,4.00836 z"
         id="path7"
         sodipodi:nodetypes="ssscs" /><path
         style="fill:#191817;stroke-width:1"
         d="m 94.914797,204.46615 c -2.328797,-0.27362 -4.077562,-1.5689 -5.114251,-3.78805 -1.318615,-2.82266 -0.944408,-6.97824 0.833933,-9.26082 0.707579,-0.9082 1.903106,-1.74791 3.079523,-2.16297 0.908894,-0.32067 3.508648,-0.36314 4.549045,-0.0742 1.072298,0.29769 2.490403,1.28695 3.086163,2.15284 0.44987,0.65387 1.10509,2.34114 1.10509,2.84576 0,0.0801 -0.67739,0.14575 -1.50532,0.14575 h -1.505319 l -0.337383,-0.7627 c -0.642928,-1.45345 -1.783374,-2.04248 -3.613993,-1.86657 -1.112234,0.10693 -2.020337,0.79985 -2.649092,2.02155 -0.411329,0.79923 -0.450082,1.0672 -0.448412,3.1008 0.002,2.4015 0.224426,3.15949 1.182861,4.03042 1.033174,0.93885 2.703345,1.24001 3.940745,0.71056 0.736734,-0.31523 1.53141,-1.16319 1.706836,-1.82129 0.136981,-0.51388 0.142817,-0.51582 1.704447,-0.56741 l 1.56699,-0.0518 -0.12474,0.66519 c -0.41396,2.20658 -2.469662,4.24173 -4.646445,4.59999 -1.32341,0.21782 -1.594863,0.22583 -2.810632,0.0829 z m -17.391273,-7.74466 v -7.57521 l 1.558173,0.0515 1.558175,0.0515 0.04682,6.18818 0.04682,6.18817 h 3.381156 3.381156 v 1.33558 1.33558 h -4.986158 -4.986155 z m 26.730456,7.09215 c 0.29386,-0.75489 3.94502,-10.94302 4.63093,-12.92207 l 0.60343,-1.7411 1.7743,0.0494 1.77428,0.0494 1.64783,4.59988 c 0.90631,2.52993 2.09938,5.77538 2.65128,7.21212 0.55188,1.43674 1.04468,2.75248 1.09509,2.92388 0.0828,0.28129 -0.0723,0.31164 -1.59197,0.31164 h -1.68362 l -0.58468,-1.78519 -0.58469,-1.78518 -2.76834,0.049 -2.76834,0.049 -0.56359,1.69173 -0.56359,1.69172 -1.63077,0.0512 -1.63077,0.0512 z m 8.74822,-5.4942 c 0.0554,-0.0554 -0.0898,-0.7165 -0.32253,-1.46914 -1.10153,-3.56148 -1.45669,-4.55327 -1.54224,-4.3067 -0.42115,1.21386 -1.73812,5.51237 -1.73812,5.67311 0,0.21006 3.39865,0.30697 3.60289,0.10271 z"
         id="path11"
         sodipodi:nodetypes="sssscssscsssssssscssssccccccccccccccscccssssccccccccccscssss" /><path
         style="fill:#e1e1dd;fill-opacity:1;stroke-width:1"
         d="m 89.973324,171.65873 c -0.746412,-0.503 -1.047043,-1.0753 -1.049582,-1.99802 -0.0069,-2.50325 3.20175,-3.21846 4.363155,-0.97254 1.067483,2.06428 -1.389669,4.26709 -3.313573,2.97056 z"
         id="path12"
         sodipodi:nodetypes="ssss" /></g></g></svg>
