<?xml version="1.0" encoding="UTF-8" standalone="no"?>
<!-- Created with Inkscape (http://www.inkscape.org/) -->

<svg
   width="140.455mm"
   height="42.994987mm"
   viewBox="20 20 162.36305 49.70131"
   version="1.1"
   id="svg1"
   xml:space="preserve"
   inkscape:version="1.4 (e7c3feb100, 2024-10-09)"
   sodipodi:docname="volca.svg"
   xmlns:inkscape="http://www.inkscape.org/namespaces/inkscape"
   xmlns:sodipodi="http://sodipodi.sourceforge.net/DTD/sodipodi-0.dtd"
   xmlns="http://www.w3.org/2000/svg"
   xmlns:svg="http://www.w3.org/2000/svg"><sodipodi:namedview
     id="namedview1"
     pagecolor="#ffffff"
     bordercolor="#000000"
     borderopacity="0.25"
     inkscape:showpageshadow="2"
     inkscape:pageopacity="0.0"
     inkscape:pagecheckerboard="0"
     inkscape:deskcolor="#d1d1d1"
     inkscape:document-units="mm"
     inkscape:zoom="0.23874278"
     inkscape:cx="358.12601"
     inkscape:cy="758.13811"
     inkscape:window-width="1920"
     inkscape:window-height="1011"
     inkscape:window-x="0"
     inkscape:window-y="0"
     inkscape:window-maximized="1"
     inkscape:current-layer="layer1" /><defs
     id="defs1" /><g
     inkscape:label="Layer 1"
     inkscape:groupmode="layer"
     id="layer1"
     transform="translate(-4.55217,-58.265843)"><g
       id="g20050"
       transform="translate(7.4539873,3.3531612)"><path
         style="fill:#393939;fill-opacity:1"
         d="m 101.30688,120.43276 c -0.0378,-0.0612 -0.0147,-2.11865 0.0515,-4.57208 0.35003,-12.9787 0.3059,-18.999799 -0.21661,-29.555706 -0.11793,-2.382298 -0.22548,-5.135864 -0.23902,-6.119034 l -0.0246,-1.787583 h 2.81889 2.81888 l 0.0925,1.787583 c 0.0509,0.98317 0.15632,9.924523 0.23432,19.86967 0.078,9.94515 0.18379,18.4629 0.2351,18.92834 0.0513,0.46543 0.053,1.00686 0.004,1.20318 l -0.0896,0.35694 h -2.80815 c -1.54448,0 -2.8391,-0.0501 -2.87693,-0.11131 z"
         id="path20050" /><path
         style="fill:#393939;fill-opacity:1"
         d="M 41.409966,120.16592 C 41.151986,119.61891 36.871501,109.12793 31.717863,96.411694 31.16615,95.05038 30.143945,92.544326 29.446297,90.842685 25.654414,81.593859 24.493278,78.665677 24.554444,78.506283 c 0.141283,-0.368177 6.76617,-0.242644 7.003637,0.13271 0.207133,0.327406 5.365649,13.21938 10.192634,25.473057 1.271757,3.22846 2.813331,7.46813 3.19122,8.77658 0.491112,1.70048 0.366199,1.83893 1.684426,-1.86688 1.007183,-2.8314 3.338312,-8.97033 7.088212,-18.666495 0.658094,-1.701641 1.647401,-4.269573 2.198461,-5.706515 0.551059,-1.436942 1.476381,-3.848776 2.056269,-5.359632 1.26243,-3.289165 0.790949,-2.954847 4.170754,-2.957399 3.477277,-0.0026 3.771688,-1.749909 -2.177878,12.925397 -2.805041,6.918963 -6.554872,16.199784 -8.332959,20.624054 -1.778086,4.42427 -3.321921,8.18335 -3.430742,8.35352 -0.195911,0.30634 -0.229407,0.30939 -3.404016,0.30939 h -3.206159 z"
         id="path20049" /><path
         style="fill:#393939;fill-opacity:1"
         d="m 150.94198,121.0793 c -10.21604,-1.48996 -11.23754,-13.57306 -1.4553,-17.21434 2.49387,-0.9283 6.05562,-1.48127 12.58183,-1.95335 3.74564,-0.27095 3.36912,-0.1062 3.36787,-1.47364 -0.006,-6.561071 -5.31777,-8.275037 -16.87649,-5.445574 -2.20006,0.538554 -2.0645,0.63635 -2.23726,-1.613966 -0.16458,-2.143603 -0.31701,-1.955284 2.04336,-2.524393 10.14782,-2.446741 18.29722,-1.310548 21.12177,2.944807 1.4921,2.247956 1.59689,3.031958 1.72754,12.925726 0.10865,8.22771 0.24833,10.83994 0.68343,12.78146 0.24085,1.07469 0.33087,1.03793 -2.54147,1.03793 h -2.55158 l -0.13306,-0.34997 c -0.0732,-0.19248 -0.26428,-1.10518 -0.42465,-2.02822 -0.16038,-0.92303 -0.31474,-1.75856 -0.34303,-1.85672 -0.0317,-0.1101 -0.4359,0.15683 -1.05487,0.69665 -3.78526,3.30124 -8.91069,4.80245 -13.90809,4.0736 z m 7.00134,-4.31704 c 2.72172,-0.55548 5.31273,-2.1441 6.86506,-4.20914 l 0.62904,-0.83682 v -3.0316 -3.03161 l -1.75321,0.0939 c -11.32499,0.60684 -14.96927,2.16876 -14.94791,6.40659 0.0192,3.81028 3.81332,5.70945 9.20702,4.60864 z"
         id="path20048" /><path
         style="fill:#393939;fill-opacity:1"
         d="m 126.66062,121.0853 c -9.91513,-1.10014 -15.5332,-9.20173 -13.20553,-19.04315 2.1772,-9.205215 11.77224,-14.320215 22.28095,-11.877698 3.32318,0.772399 3.26516,0.708702 2.82346,3.099885 -0.42263,2.287957 -0.37727,2.232407 -1.46987,1.800133 -10.53329,-4.167373 -20.07808,3.295794 -17.79381,13.91315 1.556,7.23235 10.64826,10.45067 19.04425,6.74097 0.8298,-0.36664 1.91707,2.71154 1.30212,3.68644 -0.68844,1.09139 -8.81217,2.1429 -12.98157,1.68027 z"
         id="path20047" /><path
         style="fill:#52b3b8;fill-opacity:1"
         d="m 77.123806,121.01765 c -7.301197,-1.04019 -13.406347,-7.18595 -14.628801,-14.42222 -1.324613,-6.926624 2.094541,-14.464273 8.246867,-17.948523 6.599812,-3.980764 15.808598,-3.325872 21.44128,2.074941 4.906835,4.52966 6.994587,11.950922 4.77511,18.306432 -2.173576,6.82286 -8.786622,11.96264 -15.971484,12.19951 -1.290383,0.0635 -2.586709,-0.0113 -3.862972,-0.21014 z m 7.831628,-21.651568 c 2.407643,-1.000853 4.672463,-2.657221 5.967744,-4.955918 0.390861,-1.716885 -1.322306,-3.030951 -2.42747,-4.097236 -3.729089,-3.198418 -9.368219,-3.380606 -13.719962,-1.424317 -1.709601,0.754538 -3.625917,2.506258 -2.883617,4.5669 0.9455,1.915404 2.736416,3.267882 4.394679,4.550431 1.325864,0.870251 2.778856,1.373146 4.383587,1.531813 1.404207,0.242714 2.923636,0.30843 4.285039,-0.171673 z"
         id="path20027" /><path
         style="fill:#aabc46;fill-opacity:1"
         d="m 77.123806,121.01765 c -3.547678,-0.70783 -6.895939,-2.44914 -9.620676,-4.81523 -1.169515,-0.69922 -1.104476,-2.13794 0.296682,-2.13416 -0.0018,-1.20069 -2.340031,-2.98128 -1.616294,-3.51496 2.880309,1.43755 6.038099,2.49911 9.276248,2.60865 1.329548,-0.32549 1.903035,-2.33893 1.510427,-3.70472 0.01656,-1.88287 0.583917,-3.58638 1.457148,-5.22605 0.986108,-1.33811 2.108932,-2.43043 3.682915,-3.07552 1.581429,-0.49319 2.441688,-2.024467 4.191912,-2.41715 1.896102,-1.094684 3.802058,-2.551825 4.712621,-4.595292 -0.04541,-1.831521 -1.751767,-3.05166 -2.894492,-4.314652 -0.474412,-0.493607 -3.026335,-2.855009 -1.082947,-2.376367 5.373713,2.174347 9.685523,7.091825 10.515148,12.912851 1.412913,8.38726 -3.771619,17.54394 -12.00673,20.08054 -2.708372,0.87137 -5.619931,1.01374 -8.421962,0.57206 z"
         id="path20026" /></g></g></svg>
